<mxfile host="Electron" agent="Mozilla/5.0 (X11; Linux x86_64) AppleWebKit/537.36 (KHTML, like Gecko) draw.io/24.7.17 Chrome/128.0.6613.36 Electron/32.0.1 Safari/537.36" version="24.7.17" pages="2">
  <diagram name="design per pages" id="NP-bvgKCD1iRng7ugvCI">
    <mxGraphModel dx="5239" dy="2095" grid="1" gridSize="10" guides="1" tooltips="1" connect="1" arrows="1" fold="1" page="1" pageScale="1" pageWidth="827" pageHeight="1169" math="0" shadow="0">
      <root>
        <mxCell id="0" />
        <mxCell id="1" parent="0" />
        <mxCell id="EUwMQFjHViPAQiLTIeCK-2" value="" style="rounded=0;whiteSpace=wrap;html=1;" parent="1" vertex="1">
          <mxGeometry x="-600" y="100" width="1200" height="900" as="geometry" />
        </mxCell>
        <mxCell id="EUwMQFjHViPAQiLTIeCK-4" value="&lt;font style=&quot;font-size: 16px;&quot;&gt;Menu&lt;/font&gt;" style="rounded=0;whiteSpace=wrap;html=1;strokeWidth=4;" parent="1" vertex="1">
          <mxGeometry x="-580" y="130" width="120" height="840" as="geometry" />
        </mxCell>
        <mxCell id="EUwMQFjHViPAQiLTIeCK-5" value="&lt;font style=&quot;font-size: 16px;&quot;&gt;Interfaces&lt;/font&gt;" style="rounded=0;whiteSpace=wrap;html=1;strokeWidth=4;" parent="1" vertex="1">
          <mxGeometry x="-430" y="130" width="410" height="160" as="geometry" />
        </mxCell>
        <mxCell id="EUwMQFjHViPAQiLTIeCK-6" value="&lt;font style=&quot;font-size: 16px;&quot;&gt;Resume&lt;/font&gt;" style="rounded=0;whiteSpace=wrap;html=1;strokeWidth=4;" parent="1" vertex="1">
          <mxGeometry x="10" y="130" width="570" height="160" as="geometry" />
        </mxCell>
        <mxCell id="EUwMQFjHViPAQiLTIeCK-7" value="&lt;font style=&quot;font-size: 16px;&quot;&gt;Groups User&lt;/font&gt;" style="rounded=0;whiteSpace=wrap;html=1;strokeWidth=4;" parent="1" vertex="1">
          <mxGeometry x="-430" y="320" width="650" height="650" as="geometry" />
        </mxCell>
        <mxCell id="EUwMQFjHViPAQiLTIeCK-8" value="&lt;font style=&quot;font-size: 16px;&quot;&gt;Network Traffics&lt;/font&gt;" style="rounded=0;whiteSpace=wrap;html=1;strokeWidth=4;" parent="1" vertex="1">
          <mxGeometry x="250" y="320" width="330" height="650" as="geometry" />
        </mxCell>
        <mxCell id="-eb3wKGkxbGwRb3HKTfy-2" value="&lt;font style=&quot;font-size: 48px;&quot;&gt;Dashboard&lt;/font&gt;" style="text;html=1;align=center;verticalAlign=middle;whiteSpace=wrap;rounded=0;" parent="1" vertex="1">
          <mxGeometry x="-820" y="530" width="60" height="30" as="geometry" />
        </mxCell>
        <mxCell id="-eb3wKGkxbGwRb3HKTfy-3" value="" style="rounded=0;whiteSpace=wrap;html=1;" parent="1" vertex="1">
          <mxGeometry x="-607" y="1200" width="1200" height="900" as="geometry" />
        </mxCell>
        <mxCell id="-eb3wKGkxbGwRb3HKTfy-5" value="&lt;span style=&quot;font-size: 16px;&quot;&gt;LoginForm&lt;/span&gt;" style="rounded=0;whiteSpace=wrap;html=1;strokeWidth=4;" parent="1" vertex="1">
          <mxGeometry x="-400" y="1330" width="800" height="640" as="geometry" />
        </mxCell>
        <mxCell id="-eb3wKGkxbGwRb3HKTfy-9" value="&lt;font style=&quot;font-size: 48px;&quot;&gt;Login&lt;/font&gt;" style="text;html=1;align=center;verticalAlign=middle;whiteSpace=wrap;rounded=0;" parent="1" vertex="1">
          <mxGeometry x="-827" y="1630" width="60" height="30" as="geometry" />
        </mxCell>
      </root>
    </mxGraphModel>
  </diagram>
  <diagram id="qYvRc1Ga_HxnsC1wfcsY" name="scenarios">
    <mxGraphModel dx="683" dy="399" grid="1" gridSize="10" guides="1" tooltips="1" connect="1" arrows="1" fold="1" page="1" pageScale="1" pageWidth="827" pageHeight="1169" math="0" shadow="0">
      <root>
        <mxCell id="0" />
        <mxCell id="1" parent="0" />
        <mxCell id="-1yr0tGeKDDemdN_jw1I-1" value="&lt;font style=&quot;font-size: 16px;&quot;&gt;Server VPN - US&lt;/font&gt;" style="shape=mxgraph.cisco.servers.standard_host;sketch=0;html=1;pointerEvents=1;dashed=0;fillColor=#036897;strokeColor=#ffffff;strokeWidth=2;verticalLabelPosition=bottom;verticalAlign=top;align=center;outlineConnect=0;" parent="1" vertex="1">
          <mxGeometry x="740" y="70" width="43" height="62" as="geometry" />
        </mxCell>
        <mxCell id="-1yr0tGeKDDemdN_jw1I-2" value="" style="shape=mxgraph.cisco.modems_and_phones.cell_phone;sketch=0;html=1;pointerEvents=1;dashed=0;fillColor=#036897;strokeColor=#ffffff;strokeWidth=2;verticalLabelPosition=bottom;verticalAlign=top;align=center;outlineConnect=0;" parent="1" vertex="1">
          <mxGeometry x="86" y="460" width="34" height="58" as="geometry" />
        </mxCell>
        <mxCell id="-1yr0tGeKDDemdN_jw1I-3" value="" style="shape=mxgraph.cisco.computers_and_peripherals.laptop;sketch=0;html=1;pointerEvents=1;dashed=0;fillColor=#036897;strokeColor=#ffffff;strokeWidth=2;verticalLabelPosition=bottom;verticalAlign=top;align=center;outlineConnect=0;" parent="1" vertex="1">
          <mxGeometry x="460" y="630" width="90" height="61" as="geometry" />
        </mxCell>
        <mxCell id="-1yr0tGeKDDemdN_jw1I-4" value="&lt;font style=&quot;font-size: 16px;&quot;&gt;Server VPN - FR&lt;/font&gt;" style="shape=mxgraph.cisco.servers.standard_host;sketch=0;html=1;pointerEvents=1;dashed=0;fillColor=#036897;strokeColor=#ffffff;strokeWidth=2;verticalLabelPosition=bottom;verticalAlign=top;align=center;outlineConnect=0;" parent="1" vertex="1">
          <mxGeometry x="440" y="70" width="43" height="62" as="geometry" />
        </mxCell>
        <mxCell id="-1yr0tGeKDDemdN_jw1I-5" value="&lt;font style=&quot;font-size: 16px;&quot;&gt;Main Server VPN - PF&lt;/font&gt;" style="shape=mxgraph.cisco.servers.standard_host;sketch=0;html=1;pointerEvents=1;dashed=0;fillColor=#036897;strokeColor=#ffffff;strokeWidth=2;verticalLabelPosition=bottom;verticalAlign=top;align=center;outlineConnect=0;" parent="1" vertex="1">
          <mxGeometry x="380" y="370" width="43" height="62" as="geometry" />
        </mxCell>
        <mxCell id="-1yr0tGeKDDemdN_jw1I-6" value="&lt;font style=&quot;font-size: 16px;&quot;&gt;Server VPN - CN&lt;/font&gt;" style="shape=mxgraph.cisco.servers.standard_host;sketch=0;html=1;pointerEvents=1;dashed=0;fillColor=#036897;strokeColor=#ffffff;strokeWidth=2;verticalLabelPosition=bottom;verticalAlign=top;align=center;outlineConnect=0;" parent="1" vertex="1">
          <mxGeometry x="590" y="70" width="43" height="62" as="geometry" />
        </mxCell>
        <mxCell id="-1yr0tGeKDDemdN_jw1I-7" value="" style="endArrow=none;html=1;rounded=0;exitX=1;exitY=0.5;exitDx=0;exitDy=0;exitPerimeter=0;edgeStyle=orthogonalEdgeStyle;curved=1;strokeColor=#9999FF;" parent="1" source="-1yr0tGeKDDemdN_jw1I-2" target="-1yr0tGeKDDemdN_jw1I-5" edge="1">
          <mxGeometry width="50" height="50" relative="1" as="geometry">
            <mxPoint x="150" y="430" as="sourcePoint" />
            <mxPoint x="200" y="380" as="targetPoint" />
          </mxGeometry>
        </mxCell>
        <mxCell id="-1yr0tGeKDDemdN_jw1I-8" value="" style="endArrow=none;html=1;rounded=0;edgeStyle=orthogonalEdgeStyle;curved=1;strokeColor=#9999FF;" parent="1" source="-1yr0tGeKDDemdN_jw1I-3" target="-1yr0tGeKDDemdN_jw1I-5" edge="1">
          <mxGeometry width="50" height="50" relative="1" as="geometry">
            <mxPoint x="120" y="540" as="sourcePoint" />
            <mxPoint x="170" y="490" as="targetPoint" />
          </mxGeometry>
        </mxCell>
        <mxCell id="-1yr0tGeKDDemdN_jw1I-9" value="" style="endArrow=classic;html=1;rounded=0;edgeStyle=orthogonalEdgeStyle;curved=1;strokeColor=#FF99FF;endFill=1;" parent="1" source="-1yr0tGeKDDemdN_jw1I-5" target="-1yr0tGeKDDemdN_jw1I-4" edge="1">
          <mxGeometry width="50" height="50" relative="1" as="geometry">
            <mxPoint x="280" y="410" as="sourcePoint" />
            <mxPoint x="330" y="360" as="targetPoint" />
          </mxGeometry>
        </mxCell>
        <mxCell id="-1yr0tGeKDDemdN_jw1I-10" value="" style="endArrow=classic;html=1;rounded=0;edgeStyle=orthogonalEdgeStyle;curved=1;strokeColor=#FF99FF;endFill=1;" parent="1" source="-1yr0tGeKDDemdN_jw1I-5" target="-1yr0tGeKDDemdN_jw1I-6" edge="1">
          <mxGeometry width="50" height="50" relative="1" as="geometry">
            <mxPoint x="280" y="410" as="sourcePoint" />
            <mxPoint x="330" y="360" as="targetPoint" />
          </mxGeometry>
        </mxCell>
        <mxCell id="-1yr0tGeKDDemdN_jw1I-11" value="" style="endArrow=classic;html=1;rounded=0;edgeStyle=orthogonalEdgeStyle;curved=1;strokeColor=#FF99FF;endFill=1;" parent="1" source="-1yr0tGeKDDemdN_jw1I-5" target="-1yr0tGeKDDemdN_jw1I-1" edge="1">
          <mxGeometry width="50" height="50" relative="1" as="geometry">
            <mxPoint x="280" y="410" as="sourcePoint" />
            <mxPoint x="330" y="360" as="targetPoint" />
          </mxGeometry>
        </mxCell>
        <mxCell id="-1yr0tGeKDDemdN_jw1I-12" value="" style="endArrow=classic;startArrow=classic;html=1;rounded=0;dashed=1;dashPattern=8 8;strokeWidth=4;strokeColor=#13EC1A;" parent="1" source="-1yr0tGeKDDemdN_jw1I-2" target="-1yr0tGeKDDemdN_jw1I-4" edge="1">
          <mxGeometry width="50" height="50" relative="1" as="geometry">
            <mxPoint x="280" y="410" as="sourcePoint" />
            <mxPoint x="250" y="280" as="targetPoint" />
          </mxGeometry>
        </mxCell>
        <mxCell id="-1yr0tGeKDDemdN_jw1I-13" value="" style="endArrow=classic;startArrow=classic;html=1;rounded=0;dashed=1;dashPattern=8 8;strokeWidth=4;strokeColor=#13EC1A;" parent="1" source="-1yr0tGeKDDemdN_jw1I-2" target="-1yr0tGeKDDemdN_jw1I-6" edge="1">
          <mxGeometry width="50" height="50" relative="1" as="geometry">
            <mxPoint x="290" y="420" as="sourcePoint" />
            <mxPoint x="340" y="370" as="targetPoint" />
          </mxGeometry>
        </mxCell>
        <mxCell id="-1yr0tGeKDDemdN_jw1I-14" value="" style="endArrow=classic;startArrow=classic;html=1;rounded=0;dashed=1;dashPattern=8 8;strokeWidth=4;strokeColor=#13EC1A;" parent="1" source="-1yr0tGeKDDemdN_jw1I-2" target="-1yr0tGeKDDemdN_jw1I-1" edge="1">
          <mxGeometry width="50" height="50" relative="1" as="geometry">
            <mxPoint x="300" y="430" as="sourcePoint" />
            <mxPoint x="350" y="380" as="targetPoint" />
          </mxGeometry>
        </mxCell>
        <mxCell id="-1yr0tGeKDDemdN_jw1I-15" value="" style="endArrow=classic;startArrow=classic;html=1;rounded=0;dashed=1;dashPattern=8 8;strokeWidth=4;strokeColor=#13ec1a;" parent="1" source="-1yr0tGeKDDemdN_jw1I-2" target="-1yr0tGeKDDemdN_jw1I-5" edge="1">
          <mxGeometry width="50" height="50" relative="1" as="geometry">
            <mxPoint x="310" y="440" as="sourcePoint" />
            <mxPoint x="360" y="390" as="targetPoint" />
          </mxGeometry>
        </mxCell>
        <mxCell id="-1yr0tGeKDDemdN_jw1I-16" value="&lt;font style=&quot;font-size: 24px;&quot;&gt;Scenario 1 : The phone client connects to the main server (in French Polynesia), which provides the authentication process. If it is successful, the phone client can access one the VPN servers (French Polynesia, France, United States or China).&lt;/font&gt;&lt;div&gt;&lt;font style=&quot;font-size: 24px;&quot;&gt;In this scenario, the laptop does not use Rūpa because it is not watching Netflix at the moment (maybe later).&lt;/font&gt;&lt;/div&gt;" style="text;html=1;align=center;verticalAlign=middle;whiteSpace=wrap;rounded=0;" parent="1" vertex="1">
          <mxGeometry x="120" y="780" width="530" height="320" as="geometry" />
        </mxCell>
        <mxCell id="snvrLUW83nI6_6TJ9-ii-1" value="" style="endArrow=classic;html=1;rounded=0;strokeColor=#FF99FF;endFill=1;" edge="1" parent="1">
          <mxGeometry width="50" height="50" relative="1" as="geometry">
            <mxPoint x="30" y="644.89" as="sourcePoint" />
            <mxPoint x="100" y="644.89" as="targetPoint" />
          </mxGeometry>
        </mxCell>
        <mxCell id="snvrLUW83nI6_6TJ9-ii-2" value="" style="endArrow=classic;startArrow=classic;html=1;rounded=0;dashed=1;dashPattern=8 8;strokeWidth=4;strokeColor=#13ec1a;" edge="1" parent="1">
          <mxGeometry width="50" height="50" relative="1" as="geometry">
            <mxPoint x="30" y="694.89" as="sourcePoint" />
            <mxPoint x="100" y="694.89" as="targetPoint" />
          </mxGeometry>
        </mxCell>
        <mxCell id="snvrLUW83nI6_6TJ9-ii-3" value="" style="endArrow=none;html=1;rounded=0;exitX=1;exitY=0.5;exitDx=0;exitDy=0;exitPerimeter=0;strokeColor=#9999FF;" edge="1" parent="1">
          <mxGeometry width="50" height="50" relative="1" as="geometry">
            <mxPoint x="30" y="600" as="sourcePoint" />
            <mxPoint x="100" y="600" as="targetPoint" />
          </mxGeometry>
        </mxCell>
        <mxCell id="snvrLUW83nI6_6TJ9-ii-4" value="Authenticate" style="text;html=1;align=center;verticalAlign=middle;whiteSpace=wrap;rounded=0;" vertex="1" parent="1">
          <mxGeometry x="110" y="585" width="60" height="30" as="geometry" />
        </mxCell>
        <mxCell id="snvrLUW83nI6_6TJ9-ii-5" value="Manage" style="text;html=1;align=center;verticalAlign=middle;whiteSpace=wrap;rounded=0;" vertex="1" parent="1">
          <mxGeometry x="110" y="630" width="60" height="30" as="geometry" />
        </mxCell>
        <mxCell id="snvrLUW83nI6_6TJ9-ii-6" value="Tunnel" style="text;html=1;align=center;verticalAlign=middle;whiteSpace=wrap;rounded=0;" vertex="1" parent="1">
          <mxGeometry x="110" y="680" width="60" height="30" as="geometry" />
        </mxCell>
      </root>
    </mxGraphModel>
  </diagram>
</mxfile>
